<?xml version="1.0" encoding="iso-8859-1"?>
<!-- Uploaded to: SVG Repo, www.svgrepo.com, Generator: SVG Repo Mixer Tools -->
<svg version="1.1" id="Layer_1" xmlns="http://www.w3.org/2000/svg" xmlns:xlink="http://www.w3.org/1999/xlink" 
	 viewBox="0 0 512 512" xml:space="preserve">
<path style="fill:#E6E6E6;" d="M109.553,149.338v340.774l49.163-29.84l49.163,29.84l49.163-29.84l49.163,29.84l49.163-29.84
	l49.163,29.84l49.163-29.84l49.163,29.84V72.096c0-27.729-22.479-50.207-50.207-50.207H59.347"/>
<path style="fill:#CCCCCC;" d="M9.139,275.089h100.415V67.623c0-25.257-20.476-45.733-45.733-45.733h-8.949
	c-25.257,0-45.733,20.476-45.733,45.733V275.089z"/>
<rect x="172.354" y="109.209" style="fill:#47A7DD;" width="108.757" height="146.801"/>
<rect x="324.858" y="292.701" style="fill:#FFCA6C;" width="125.756" height="73.394"/>
<path d="M502.861,325.869c5.049,0,9.139-4.092,9.139-9.139V72.096c0-32.723-26.623-59.347-59.345-59.347H59.347
	C26.623,12.749,0,39.373,0,72.096v145.645c0,5.047,4.092,9.139,9.139,9.139s9.139-4.092,9.139-9.139V72.096
	c0-22.645,18.424-41.068,41.068-41.068s41.068,18.424,41.068,41.068v77.241V265.95H18.279v-14.764c0-5.047-4.092-9.139-9.139-9.139
	S0,246.138,0,251.186v23.903c0,5.047,4.092,9.139,9.139,9.139h91.274v205.883c0,3.301,1.78,6.345,4.656,7.965
	c2.877,1.618,6.402,1.561,9.225-0.152l44.422-26.962l44.422,26.962c2.915,1.768,6.571,1.768,9.484,0l44.422-26.962l44.421,26.962
	c2.914,1.768,6.569,1.768,9.484,0l44.422-26.962l44.421,26.962c2.914,1.768,6.569,1.768,9.484,0l44.422-26.962l44.421,26.962
	c1.455,0.883,3.098,1.326,4.743,1.326c1.545,0,3.089-0.391,4.483-1.175c2.876-1.619,4.656-4.663,4.656-7.965V350.175
	c0-5.047-4.091-9.139-9.139-9.139s-9.139,4.092-9.139,9.139v123.698l-35.281-21.415c-2.916-1.768-6.572-1.768-9.484,0
	l-44.422,26.962l-44.421-26.962c-2.916-1.768-6.572-1.768-9.484,0l-44.422,26.962l-44.421-26.962c-2.916-1.768-6.571-1.768-9.484,0
	l-44.422,26.962l-44.422-26.962c-2.915-1.768-6.571-1.768-9.484,0l-35.282,21.415V275.089V149.338V72.096
	c0-15.927-6.318-30.397-16.566-41.068h350.527c22.645,0,41.067,18.424,41.067,41.068V316.73
	C493.721,321.779,497.812,325.869,502.861,325.869z"/>
<path d="M290.242,109.204c0-5.047-4.091-9.139-9.139-9.139H172.348c-5.047,0-9.139,4.092-9.139,9.139V256
	c0,5.047,4.092,9.139,9.139,9.139h108.755c5.049,0,9.139-4.092,9.139-9.139V109.204z M271.964,246.861h-90.476V118.343h90.476
	V246.861z"/>
<path d="M450.606,283.561H324.855c-5.049,0-9.139,4.092-9.139,9.139v73.397c0,5.047,4.091,9.139,9.139,9.139h125.75
	c5.049,0,9.139-4.092,9.139-9.139V292.7C459.745,287.652,455.653,283.561,450.606,283.561z M441.467,356.957H333.995v-55.118
	h107.472V356.957z"/>
<path d="M450.606,100.065H324.855c-5.049,0-9.139,4.092-9.139,9.139s4.091,9.139,9.139,9.139h125.75
	c5.049,0,9.139-4.092,9.139-9.139S455.653,100.065,450.606,100.065z"/>
<path d="M450.606,246.861H324.855c-5.049,0-9.139,4.092-9.139,9.139c0,5.047,4.091,9.139,9.139,9.139h125.75
	c5.049,0,9.139-4.092,9.139-9.139C459.744,250.953,455.653,246.861,450.606,246.861z"/>
<path d="M450.606,210.162h-46.822c-5.049,0-9.139,4.092-9.139,9.139c0,5.047,4.091,9.139,9.139,9.139h46.822
	c5.049,0,9.139-4.092,9.139-9.139C459.745,214.254,455.653,210.162,450.606,210.162z"/>
<path d="M324.855,228.441h45.484c5.049,0,9.139-4.092,9.139-9.139c0-5.047-4.091-9.139-9.139-9.139h-45.484
	c-5.049,0-9.139,4.092-9.139,9.139C315.715,224.349,319.807,228.441,324.855,228.441z"/>
<path d="M450.606,173.463H324.855c-5.049,0-9.139,4.092-9.139,9.139c0,5.047,4.091,9.139,9.139,9.139h125.75
	c5.049,0,9.139-4.092,9.139-9.139C459.744,177.555,455.653,173.463,450.606,173.463z"/>
<path d="M172.348,382.464h108.755c5.049,0,9.139-4.092,9.139-9.139s-4.091-9.139-9.139-9.139H172.348
	c-5.047,0-9.139,4.092-9.139,9.139S167.301,382.464,172.348,382.464z"/>
<path d="M281.103,327.487h-39.192c-5.047,0-9.139,4.092-9.139,9.139c0,5.047,4.092,9.139,9.139,9.139h39.192
	c5.049,0,9.139-4.092,9.139-9.139C290.242,331.579,286.152,327.487,281.103,327.487z"/>
<path d="M172.348,345.766h36.12c5.047,0,9.139-4.092,9.139-9.139c0-5.047-4.092-9.139-9.139-9.139h-36.12
	c-5.047,0-9.139,4.092-9.139,9.139C163.209,341.674,167.301,345.766,172.348,345.766z"/>
<path d="M281.103,290.789H172.348c-5.047,0-9.139,4.092-9.139,9.139s4.092,9.139,9.139,9.139h108.755
	c5.049,0,9.139-4.092,9.139-9.139S286.152,290.789,281.103,290.789z"/>
<path d="M450.606,136.764h-8.027c-5.049,0-9.139,4.092-9.139,9.139c0,5.047,4.091,9.139,9.139,9.139h8.027
	c5.049,0,9.139-4.092,9.139-9.139C459.745,140.856,455.653,136.764,450.606,136.764z"/>
<path d="M324.855,155.043h84.28c5.049,0,9.139-4.092,9.139-9.139c0-5.047-4.091-9.139-9.139-9.139h-84.28
	c-5.049,0-9.139,4.092-9.139,9.139C315.715,150.951,319.807,155.043,324.855,155.043z"/>
</svg>